<?xml version="1.0" encoding="utf-8"?>
<!-- Generator: Adobe Illustrator 19.2.0, SVG Export Plug-In . SVG Version: 6.00 Build 0)  -->
<svg version="1.1" id="Слой_1" xmlns="http://www.w3.org/2000/svg" xmlns:xlink="http://www.w3.org/1999/xlink" x="0px" y="0px"
	 width="358.8px" height="51.8px" viewBox="0 0 358.8 51.8" style="enable-background:new 0 0 358.8 51.8;" xml:space="preserve">
<style type="text/css">
	.st0{fill:#FF673E;}
	.st1{opacity:0.8;fill:#3D4249;enable-background:new    ;}
	.st2{font-family:'PTSerif-Regular';}
	.st3{font-size:14px;}
</style>
<path class="st0" d="M47.4,37.2L23.9,47.9c0,0,0,0,0,0C23.8,48,23.6,48,23.5,48c0,0,0,0,0,0c0,0,0,0,0,0s0,0,0,0
	c-0.1,0-0.2,0-0.4-0.1c0,0-0.1,0-0.1,0c-0.1,0-0.2-0.1-0.2-0.2c0,0-0.1,0-0.1-0.1c-0.1-0.1-0.1-0.2-0.2-0.3c0,0,0,0,0,0
	c0-0.1,0-0.1,0-0.2c0-0.1,0-0.1,0-0.2c0,0,0,0,0,0V31c0,0,0,0,0-0.1c0-0.1,0-0.1,0-0.2c0-0.1,0-0.1,0.1-0.2c0-0.1,0.1-0.1,0.1-0.2
	c0-0.1,0.1-0.1,0.1-0.2c0,0,0.1-0.1,0.2-0.1C23,30,23,30,23.1,30c0,0,0,0,0.1,0l23.5-6.3c0,0,0.1,0,0.1,0c0,0,0.1,0,0.1,0
	c0,0,0,0,0.1,0c0.1,0,0.1,0,0.2,0c0.1,0,0.1,0,0.2,0.1c0.1,0,0.1,0.1,0.2,0.1c0.1,0,0.1,0.1,0.2,0.1c0,0,0.1,0.1,0.1,0.2
	c0,0.1,0.1,0.1,0.1,0.2c0,0,0,0,0,0.1c0,0,0,0.1,0,0.1c0,0,0,0.1,0,0.1v11.6C48,36.6,47.8,37,47.4,37.2z M45.9,26l-21.4,5.8v13.5
	l21.4-9.7V26z M28.7,35.5l13.8-4.8c0.6-0.2,1.2,0.1,1.4,0.7c0.2,0.6-0.1,1.2-0.7,1.4l-13.8,4.8c-0.1,0-0.2,0.1-0.3,0.1
	c-0.4,0-0.9-0.3-1-0.7C27.8,36.3,28.1,35.7,28.7,35.5z M42.1,23.2c0,0.1,0,0.1-0.1,0.2c0,0.1-0.1,0.1-0.1,0.2c0,0.1-0.1,0.1-0.1,0.2
	c0,0-0.1,0.1-0.2,0.1c-0.1,0-0.1,0.1-0.2,0.1c0,0-0.1,0-0.1,0l-23,5.4v12.2c0,0.4-0.2,0.7-0.5,0.9c-0.2,0.1-0.3,0.1-0.5,0.1
	c-0.2,0-0.4,0-0.5-0.1L0.5,32.8C0.2,32.7,0,32.3,0,31.9V1.1C0,0.5,0.5,0,1.1,0h40.1c0.6,0,1.1,0.5,1.1,1.1v21.8c0,0,0,0.1,0,0.1
	C42.2,23.1,42.2,23.1,42.1,23.2z M16.3,2.1H2.1v29.2l14.1,8.4V2.1z M40.1,2.1H18.4v11.5l21.7-2.5V2.1z M40.1,13.3l-21.7,2.5v11.4
	l21.7-5.1V13.3z M22.8,19.6l13.3-2.4c0.6-0.1,1.1,0.3,1.2,0.9c0.1,0.6-0.3,1.1-0.9,1.2l-13.3,2.4c-0.1,0-0.1,0-0.2,0
	c-0.5,0-1-0.4-1-0.9C21.8,20.3,22.2,19.7,22.8,19.6z M22.9,6.9l13.3-0.6c0.6,0,1.1,0.4,1.1,1c0,0.6-0.4,1.1-1,1.1L23,9
	c0,0,0,0-0.1,0c-0.6,0-1-0.4-1.1-1C21.9,7.4,22.3,6.9,22.9,6.9z"/>
<path class="st1" d="M354,10.5c-0.5,0-1,0.1-1.3,0.4c-0.3,0.2-0.5,0.5-0.5,0.9c0,0.3,0.2,0.7,0.5,1c0.3,0.3,0.8,0.7,1.6,1.1l1,0.6
	c2.4,1.4,3.6,2.9,3.6,4.5c0,1.2-0.5,2.1-1.4,2.9c-0.9,0.8-2.1,1.1-3.5,1.1c-0.9,0-1.6-0.1-2.3-0.3c-0.7-0.2-1.5-0.5-2.5-1v-3.1
	c0.8,0.6,1.6,1,2.4,1.4c0.8,0.3,1.5,0.5,2.1,0.5c0.6,0,1.1-0.1,1.5-0.4c0.4-0.3,0.6-0.6,0.6-1c0-0.4-0.1-0.8-0.4-1
	c-0.3-0.3-0.9-0.7-1.8-1.2c-1.8-1-3-1.9-3.6-2.6c-0.6-0.7-0.8-1.5-0.8-2.4c0-1.1,0.4-2,1.3-2.7c0.9-0.7,2-1,3.3-1
	c1.4,0,2.8,0.4,4.3,1.2V12C356.4,11,355,10.5,354,10.5z M344.2,22.9c-1.3,0-2.4-0.4-3.2-1.1c-0.3-0.2-0.5-0.5-0.7-0.8
	c-0.2-0.3-0.3-0.7-0.4-1.1c-0.1-0.5-0.2-1.3-0.2-2.6v-6.4h-2.5v-0.3l5.3-5.2v3h4.5v2.6h-4.5v7c0,1.6,0.7,2.5,2,2.5
	c1,0,2.1-0.3,3.2-1V22C346.7,22.6,345.5,22.9,344.2,22.9z M327.5,19c0.8,0.8,1.9,1.2,3.3,1.2c1.9,0,3.6-0.6,5.2-1.8v2.8
	c-0.9,0.6-1.7,1-2.6,1.2c-0.9,0.2-1.9,0.4-3,0.4c-1.6,0-2.8-0.3-3.8-1c-1-0.7-1.8-1.5-2.3-2.6c-0.6-1.1-0.9-2.4-0.9-3.9
	c0-2.2,0.6-4,1.8-5.3c1.2-1.4,2.8-2.1,4.8-2.1c1.9,0,3.4,0.7,4.5,2c1.1,1.3,1.7,3.1,1.7,5.4v0.4h-10.1
	C326.2,17.1,326.6,18.2,327.5,19z M333.4,14c-0.1-1.1-0.4-2-1-2.6c-0.6-0.6-1.4-0.9-2.4-0.9c-1,0-1.8,0.3-2.5,0.9
	c-0.6,0.6-1.1,1.5-1.3,2.6H333.4z M317.2,14.5c0-1.5-0.2-2.5-0.7-3.1c-0.4-0.6-1.2-0.9-2.2-0.9c-1.3,0-2.5,0.7-3.4,2v10.3H308V8.3
	h2.9v1.8c1.3-1.4,2.7-2.1,4.3-2.1c0.9,0,1.7,0.2,2.5,0.7c0.8,0.5,1.3,1.1,1.7,1.9c0.4,0.8,0.6,2.1,0.6,3.8v8.2h-2.8V14.5z
	 M302.6,5.6c-0.4,0-0.8-0.2-1.1-0.5c-0.3-0.3-0.5-0.7-0.5-1.2c0-0.4,0.2-0.8,0.5-1.2c0.3-0.3,0.7-0.5,1.1-0.5c0.5,0,0.9,0.2,1.2,0.5
	c0.3,0.3,0.5,0.7,0.5,1.2c0,0.5-0.2,0.9-0.5,1.2C303.4,5.5,303,5.6,302.6,5.6z M290.4,22.9c-0.9,0-1.9-0.1-2.9-0.3
	c-1-0.2-1.8-0.4-2.4-0.8v-21h2.8v8.5c1.2-0.9,2.5-1.3,3.9-1.3c1.8,0,3.3,0.7,4.4,2.1s1.7,3.1,1.7,5.3c0,2.3-0.7,4.2-2.1,5.5
	C294.5,22.2,292.7,22.9,290.4,22.9z M294,12c-0.7-0.9-1.7-1.3-2.9-1.3c-1.1,0-2.1,0.5-3.2,1.4v7.8c1,0.3,2,0.4,3,0.4
	c1.3,0,2.3-0.4,3.1-1.3c0.8-0.9,1.2-2,1.2-3.5C295.1,14,294.7,12.9,294,12z M279.9,22.9c-1.2,0-1.9-0.5-2.1-1.4
	c-1.2,0.9-2.5,1.4-3.8,1.4c-1,0-1.8-0.3-2.5-1c-0.7-0.7-1-1.5-1-2.5c0-0.9,0.3-1.7,1-2.4c0.6-0.7,1.6-1.3,2.8-1.7l3.6-1.2v-0.8
	c0-1.7-0.9-2.6-2.6-2.6c-1.5,0-3,0.8-4.5,2.4V10c1.1-1.3,2.7-2,4.7-2c1.5,0,2.8,0.4,3.7,1.2c0.3,0.3,0.6,0.6,0.8,1
	c0.2,0.4,0.4,0.9,0.5,1.3c0.1,0.4,0.1,1.3,0.1,2.5v6.1c0,0.5,0.2,0.7,0.5,0.7c0.3,0,0.9-0.3,1.6-0.8v1.7c-0.6,0.4-1.2,0.7-1.5,0.9
	C280.7,22.9,280.3,22.9,279.9,22.9z M277.8,15.6l-1.9,0.7c-1,0.4-1.6,0.8-2,1.2c-0.4,0.4-0.6,0.9-0.6,1.5c0,0.6,0.2,1.1,0.6,1.5
	c0.4,0.4,0.9,0.6,1.5,0.6c0.9,0,1.7-0.4,2.5-1.1V15.6z M260.3,22.9c-2.4,0-4.5-0.5-6.2-1.5c-1.7-1-3-2.3-4-4c-1-1.7-1.5-3.6-1.5-5.6
	c0-3.2,1.1-5.8,3.4-8c2.3-2.2,5-3.2,8.3-3.2c2.3,0,4.8,0.6,7.6,1.8v3.4c-2.5-1.5-5-2.2-7.4-2.2c-2.5,0-4.6,0.8-6.2,2.4
	c-1.6,1.6-2.5,3.6-2.5,5.9c0,2.4,0.8,4.4,2.4,5.9c1.6,1.5,3.7,2.3,6.2,2.3c2.6,0,5.2-0.8,7.7-2.4v3.4
	C265.9,22.3,263.3,22.9,260.3,22.9z M228.5,19c0.8,0.8,1.9,1.2,3.3,1.2c1.9,0,3.6-0.6,5.2-1.8v2.8c-0.9,0.6-1.7,1-2.6,1.2
	c-0.9,0.2-1.9,0.4-3,0.4c-1.6,0-2.8-0.3-3.8-1c-1-0.7-1.8-1.5-2.3-2.6c-0.6-1.1-0.9-2.4-0.9-3.9c0-2.2,0.6-4,1.8-5.3
	c1.2-1.4,2.8-2.1,4.8-2.1c1.9,0,3.4,0.7,4.5,2c1.1,1.3,1.7,3.1,1.7,5.4v0.4h-10.1C227.2,17.1,227.7,18.2,228.5,19z M234.4,14
	c-0.1-1.1-0.4-2-1-2.6c-0.6-0.6-1.4-0.9-2.4-0.9s-1.8,0.3-2.5,0.9c-0.6,0.6-1.1,1.5-1.3,2.6H234.4z M218.1,0.9h2.8v21.8h-2.8V0.9z
	 M202.7,30l4.9-10.4l-5.5-11.3h3.2l3.9,8.1l3.7-8.1h3.2L205.9,30H202.7z M198.5,22.9c-1.3,0-2.4-0.4-3.2-1.1
	c-0.3-0.2-0.5-0.5-0.7-0.8c-0.2-0.3-0.3-0.7-0.4-1.1c-0.1-0.5-0.2-1.3-0.2-2.6v-6.4h-2.5v-0.3l5.3-5.2v3h4.5v2.6h-4.5v7
	c0,1.6,0.7,2.5,2,2.5c1,0,2.1-0.3,3.2-1V22C201,22.6,199.8,22.9,198.5,22.9z M184.1,9.5l2.4,1.4c2.6,1.6,4,3.6,4,6.1
	c0,1.8-0.6,3.2-1.7,4.3c-1.2,1.1-2.7,1.6-4.5,1.6c-2.1,0-4.1-0.7-5.9-2v-4c1.7,2.1,3.6,3.2,5.8,3.2c1,0,1.8-0.3,2.4-0.8
	c0.6-0.5,1-1.2,1-2c0-1.3-1-2.6-2.9-3.8l-2.4-1.4c-1.5-0.9-2.5-1.8-3.2-2.7c-0.6-0.9-0.9-1.9-0.9-3c0-1.7,0.6-3.1,1.8-4.2
	s2.7-1.6,4.6-1.6c1.8,0,3.5,0.5,5,1.5v3.5c-1.6-1.5-3.2-2.3-5.1-2.3c-1,0-1.8,0.2-2.5,0.7c-0.7,0.5-1,1.1-1,1.8
	c0,0.7,0.2,1.3,0.7,1.8C182.3,8.3,183,8.9,184.1,9.5z M163.3,14.5c0-1.5-0.2-2.5-0.7-3.1c-0.4-0.6-1.2-0.9-2.2-0.9
	c-1.3,0-2.5,0.7-3.4,2v10.3h-2.9V8.3h2.9v1.8c1.3-1.4,2.7-2.1,4.3-2.1c0.9,0,1.7,0.2,2.5,0.7c0.8,0.5,1.3,1.1,1.7,1.9
	c0.4,0.8,0.6,2.1,0.6,3.8v8.2h-2.8V14.5z M148,10.7c-0.9,0-1.7,0.4-2.4,1.3c-0.7,0.9-1,1.9-1,3.1v7.5h-2.8V8.3h2.8v3.3l0.2-0.3
	c1.4-2.2,2.7-3.3,4.1-3.3c1.1,0,2.2,0.5,3.3,1.6l-1.5,2.5C149.7,11.2,148.8,10.7,148,10.7z M129.8,19c0.8,0.8,1.9,1.2,3.3,1.2
	c1.9,0,3.6-0.6,5.2-1.8v2.8c-0.9,0.6-1.7,1-2.6,1.2c-0.9,0.2-1.9,0.4-3,0.4c-1.6,0-2.8-0.3-3.8-1c-1-0.7-1.8-1.5-2.3-2.6
	c-0.6-1.1-0.9-2.4-0.9-3.9c0-2.2,0.6-4,1.8-5.3c1.2-1.4,2.8-2.1,4.8-2.1c1.9,0,3.4,0.7,4.5,2c1.1,1.3,1.7,3.1,1.7,5.4v0.4h-10.1
	C128.5,17.1,129,18.2,129.8,19z M135.7,14c-0.1-1.1-0.4-2-1-2.6c-0.6-0.6-1.4-0.9-2.4-0.9c-1,0-1.8,0.3-2.5,0.9
	c-0.6,0.6-1.1,1.5-1.3,2.6H135.7z M111.4,20.7c-1.3-1.3-1.9-3.1-1.9-5.4c0-2.1,0.7-3.9,2-5.2c1.3-1.4,3-2,5.1-2c1,0,2,0.2,3.1,0.6
	V0.9h2.8v21.8h-6C114.3,22.7,112.6,22,111.4,20.7z M119.6,20.2v-9.1c-0.9-0.4-1.8-0.7-2.7-0.7c-1.4,0-2.5,0.5-3.4,1.4
	c-0.8,0.9-1.3,2.2-1.3,3.8c0,1.5,0.4,2.6,1.1,3.4c0.4,0.5,0.9,0.8,1.4,1c0.5,0.2,1.4,0.2,2.6,0.2H119.6z M99.3,22.9
	c-2.1,0-3.9-0.7-5.4-2.1c-1.4-1.4-2.2-3.1-2.2-5.2c0-2.1,0.7-3.9,2.2-5.3c1.5-1.4,3.3-2.1,5.5-2.1c2.2,0,4,0.7,5.4,2.1
	c1.4,1.4,2.2,3.2,2.2,5.3c0,2.1-0.7,3.8-2.2,5.2C103.3,22.2,101.5,22.9,99.3,22.9z M102.7,12.2c-0.9-0.9-2.1-1.3-3.5-1.3
	c-1.4,0-2.5,0.4-3.3,1.3s-1.3,2-1.3,3.4c0,1.4,0.4,2.5,1.3,3.4c0.9,0.9,2,1.3,3.4,1.3c1.4,0,2.5-0.4,3.4-1.3c0.9-0.9,1.3-2,1.3-3.4
	C104.1,14.2,103.6,13.1,102.7,12.2z M85.1,5.7l-6.7,4.4h-0.6l-6.8-4.4v17H68V0.9H71l7.2,5l7.2-5h2.9v21.8h-3.1V5.7z M304,22.7h-2.8
	V8.3h2.8V22.7z"/>
<text transform="matrix(1 0 0 1 68.0286 47.9998)" class="st2 st3">kitchen and bathroom whosaler</text>
</svg>
