<?xml version="1.0" encoding="utf-8"?>
<!-- Generator: Adobe Illustrator 19.2.0, SVG Export Plug-In . SVG Version: 6.00 Build 0)  -->
<svg version="1.1" id="Слой_1" xmlns="http://www.w3.org/2000/svg" xmlns:xlink="http://www.w3.org/1999/xlink" x="0px" y="0px"
	 width="300.9px" height="43.4px" viewBox="0 0 300.9 43.4" style="enable-background:new 0 0 300.9 43.4;" xml:space="preserve">
<style type="text/css">
	.st0{fill:#FF673E;}
	.st1{opacity:0.8;fill:#3D4249;enable-background:new    ;}
	.st2{font-family:'PTSerif-Regular';}
	.st3{font-size:11.7375px;}
</style>
<path class="st0" d="M39.7,31.2l-19.7,9l0,0c-0.1,0.1-0.3,0.1-0.3,0.1l0,0l0,0l0,0c-0.1,0-0.2,0-0.3-0.1h-0.1
	c-0.1,0-0.2-0.1-0.2-0.2c0,0-0.1,0-0.1-0.1c-0.1-0.1-0.1-0.2-0.2-0.3l0,0c0-0.1,0-0.1,0-0.2c0-0.1,0-0.1,0-0.2l0,0V26c0,0,0,0,0-0.1
	s0-0.1,0-0.2c0-0.1,0-0.1,0.1-0.2c0-0.1,0.1-0.1,0.1-0.2c0-0.1,0.1-0.1,0.1-0.2c0,0,0.1-0.1,0.2-0.1c0,0,0,0,0.1,0c0,0,0,0,0.1,0
	l19.7-5.3h0.1h0.1c0,0,0,0,0.1,0s0.1,0,0.2,0s0.1,0,0.2,0.1c0.1,0,0.1,0.1,0.2,0.1c0.1,0,0.1,0.1,0.2,0.1c0,0,0.1,0.1,0.1,0.2
	s0.1,0.1,0.1,0.2c0,0,0,0,0,0.1v0.1v0.1v9.7C40.2,30.7,40.1,31,39.7,31.2z M38.5,21.8l-17.9,4.9V38l17.9-8.1V21.8z M24.1,29.8
	l11.6-4c0.5-0.2,1,0.1,1.2,0.6c0.2,0.5-0.1,1-0.6,1.2l-11.6,4c-0.1,0-0.2,0.1-0.3,0.1c-0.3,0-0.8-0.3-0.8-0.6
	C23.3,30.4,23.6,29.9,24.1,29.8z M35.3,19.5c0,0.1,0,0.1-0.1,0.2c0,0.1-0.1,0.1-0.1,0.2S35,19.9,35,20c0,0-0.1,0.1-0.2,0.1
	c-0.1,0-0.1,0.1-0.2,0.1h-0.1l-19.3,4.5v10.2c0,0.3-0.2,0.6-0.4,0.8c-0.2,0.1-0.3,0.1-0.4,0.1c-0.2,0-0.3,0-0.4-0.1L0.4,27.5
	C0.2,27.4,0,27.1,0,26.7V0.9C0,0.4,0.4,0,0.9,0h33.6c0.5,0,0.9,0.4,0.9,0.9v18.3v0.1C35.4,19.4,35.4,19.4,35.3,19.5z M13.7,1.8H1.8
	v24.5l11.8,7L13.7,1.8L13.7,1.8z M33.6,1.8H15.4v9.6l18.2-2.1V1.8z M33.6,11.2l-18.2,2.1v9.6l18.2-4.3V11.2z M19.1,16.4l11.2-2
	c0.5-0.1,0.9,0.3,1,0.8c0.1,0.5-0.3,0.9-0.8,1l-11.2,2c-0.1,0-0.1,0-0.2,0c-0.4,0-0.8-0.3-0.8-0.8C18.3,17,18.6,16.5,19.1,16.4z
	 M19.2,5.8l11.2-0.5c0.5,0,0.9,0.3,0.9,0.8S30.9,7,30.4,7L19.3,7.5c0,0,0,0-0.1,0c-0.5,0-0.8-0.3-0.9-0.8
	C18.4,6.2,18.7,5.8,19.2,5.8z"/>
<path class="st1" d="M296.8,8.8c-0.4,0-0.8,0.1-1.1,0.3c-0.3,0.2-0.4,0.4-0.4,0.8c0,0.3,0.2,0.6,0.4,0.8c0.3,0.3,0.7,0.6,1.3,0.9
	l0.8,0.5c2,1.2,3,2.4,3,3.8c0,1-0.4,1.8-1.2,2.4s-1.8,0.9-2.9,0.9c-0.8,0-1.3-0.1-1.9-0.3c-0.6-0.2-1.3-0.4-2.1-0.8v-2.6
	c0.7,0.5,1.3,0.8,2,1.2c0.7,0.3,1.3,0.4,1.8,0.4c0.5,0,0.9-0.1,1.3-0.3c0.3-0.3,0.5-0.5,0.5-0.8s-0.1-0.7-0.3-0.8
	c-0.3-0.3-0.8-0.6-1.5-1c-1.5-0.8-2.5-1.6-3-2.2c-0.5-0.6-0.7-1.3-0.7-2c0-0.9,0.3-1.7,1.1-2.3s1.7-0.8,2.8-0.8c1.2,0,2.3,0.3,3.6,1
	v2.2C298.8,9.2,297.6,8.8,296.8,8.8z M288.6,19.2c-1.1,0-2-0.3-2.7-0.9c-0.3-0.2-0.4-0.4-0.6-0.7c-0.2-0.3-0.3-0.6-0.3-0.9
	c-0.1-0.4-0.2-1.1-0.2-2.2V9.1h-2.1V8.9l4.4-4.4V7h3.8v2.2h-3.8v5.9c0,1.3,0.6,2.1,1.7,2.1c0.8,0,1.8-0.3,2.7-0.8v2.1
	C290.7,18.9,289.7,19.2,288.6,19.2z M274.6,15.9c0.7,0.7,1.6,1,2.8,1c1.6,0,3-0.5,4.4-1.5v2.3c-0.8,0.5-1.4,0.8-2.2,1
	s-1.6,0.3-2.5,0.3c-1.3,0-2.3-0.3-3.2-0.8c-0.8-0.6-1.5-1.3-1.9-2.2c-0.5-0.9-0.8-2-0.8-3.3c0-1.8,0.5-3.4,1.5-4.4
	c1-1.2,2.3-1.8,4-1.8c1.6,0,2.9,0.6,3.8,1.7s1.4,2.6,1.4,4.5v0.3h-8.5C273.5,14.3,273.8,15.3,274.6,15.9z M279.5,11.7
	c-0.1-0.9-0.3-1.7-0.8-2.2c-0.5-0.5-1.2-0.8-2-0.8c-0.8,0-1.5,0.3-2.1,0.8c-0.5,0.5-0.9,1.3-1.1,2.2H279.5z M265.9,12.2
	c0-1.3-0.2-2.1-0.6-2.6c-0.3-0.5-1-0.8-1.8-0.8c-1.1,0-2.1,0.6-2.9,1.7v8.6h-2.4V7h2.4v1.5c1.1-1.2,2.3-1.8,3.6-1.8
	c0.8,0,1.4,0.2,2.1,0.6s1.1,0.9,1.4,1.6c0.3,0.7,0.5,1.8,0.5,3.2v6.9h-2.3V12.2z M253.7,4.7c-0.3,0-0.7-0.2-0.9-0.4
	c-0.3-0.3-0.4-0.6-0.4-1c0-0.3,0.2-0.7,0.4-1c0.3-0.3,0.6-0.4,0.9-0.4c0.4,0,0.8,0.2,1,0.4c0.3,0.3,0.4,0.6,0.4,1s-0.2,0.8-0.4,1
	C254.4,4.6,254,4.7,253.7,4.7z M243.5,19.2c-0.8,0-1.6-0.1-2.4-0.3c-0.8-0.2-1.5-0.3-2-0.7V0.7h2.3v7.1c1-0.8,2.1-1.1,3.3-1.1
	c1.5,0,2.8,0.6,3.7,1.8s1.4,2.6,1.4,4.4c0,1.9-0.6,3.5-1.8,4.6C246.9,18.6,245.4,19.2,243.5,19.2z M246.5,10.1
	c-0.6-0.8-1.4-1.1-2.4-1.1c-0.9,0-1.8,0.4-2.7,1.2v6.5c0.8,0.3,1.7,0.3,2.5,0.3c1.1,0,1.9-0.3,2.6-1.1c0.7-0.8,1-1.7,1-2.9
	C247.4,11.7,247.1,10.8,246.5,10.1z M234.7,19.2c-1,0-1.6-0.4-1.8-1.2c-1,0.8-2.1,1.2-3.2,1.2c-0.8,0-1.5-0.3-2.1-0.8
	s-0.8-1.3-0.8-2.1c0-0.8,0.3-1.4,0.8-2c0.5-0.6,1.3-1.1,2.3-1.4l3-1v-0.7c0-1.4-0.8-2.2-2.2-2.2c-1.3,0-2.5,0.7-3.8,2V8.4
	c0.9-1.1,2.3-1.7,3.9-1.7c1.3,0,2.3,0.3,3.1,1c0.3,0.3,0.5,0.5,0.7,0.8c0.2,0.3,0.3,0.8,0.4,1.1c0.1,0.3,0.1,1.1,0.1,2.1v5.1
	c0,0.4,0.2,0.6,0.4,0.6s0.8-0.3,1.3-0.7v1.4c-0.5,0.3-1,0.6-1.3,0.8C235.3,19.2,235,19.2,234.7,19.2z M232.9,13.1l-1.6,0.6
	c-0.8,0.3-1.3,0.7-1.7,1c-0.3,0.3-0.5,0.8-0.5,1.3s0.2,0.9,0.5,1.3s0.8,0.5,1.3,0.5c0.8,0,1.4-0.3,2.1-0.9L232.9,13.1L232.9,13.1z
	 M218.2,19.2c-2,0-3.8-0.4-5.2-1.3c-1.4-0.8-2.5-1.9-3.4-3.4s-1.3-3-1.3-4.7c0-2.7,0.9-4.9,2.9-6.7s4.2-2.7,7-2.7
	c1.9,0,4,0.5,6.4,1.5v2.9c-2.1-1.3-4.2-1.8-6.2-1.8c-2.1,0-3.9,0.7-5.2,2s-2.1,3-2.1,4.9c0,2,0.7,3.7,2,4.9c1.3,1.3,3.1,1.9,5.2,1.9
	c2.2,0,4.4-0.7,6.5-2v2.9C222.9,18.7,220.7,19.2,218.2,19.2z M191.6,15.9c0.7,0.7,1.6,1,2.8,1c1.6,0,3-0.5,4.4-1.5v2.3
	c-0.8,0.5-1.4,0.8-2.2,1c-0.8,0.2-1.6,0.3-2.5,0.3c-1.3,0-2.3-0.3-3.2-0.8c-0.8-0.6-1.5-1.3-1.9-2.2c-0.5-0.9-0.8-2-0.8-3.3
	c0-1.8,0.5-3.4,1.5-4.4c1-1.2,2.3-1.8,4-1.8c1.6,0,2.9,0.6,3.8,1.7s1.4,2.6,1.4,4.5v0.3h-8.5C190.5,14.3,190.9,15.3,191.6,15.9z
	 M196.5,11.7c-0.1-0.9-0.3-1.7-0.8-2.2s-1.2-0.8-2-0.8s-1.5,0.3-2.1,0.8c-0.5,0.5-0.9,1.3-1.1,2.2H196.5z M182.9,0.8h2.3V19h-2.3
	V0.8z M169.9,25.2l4.1-8.7L169.4,7h2.7l3.3,6.8l3.1-6.8h2.7l-8.6,18.2H169.9z M166.4,19.2c-1.1,0-2-0.3-2.7-0.9
	c-0.3-0.2-0.4-0.4-0.6-0.7c-0.2-0.3-0.3-0.6-0.3-0.9c-0.1-0.4-0.2-1.1-0.2-2.2V9.1h-2.1V8.9l4.4-4.4V7h3.8v2.2H165v5.9
	c0,1.3,0.6,2.1,1.7,2.1c0.8,0,1.8-0.3,2.7-0.8v2.1C168.5,18.9,167.5,19.2,166.4,19.2z M154.3,8l2,1.2c2.2,1.3,3.4,3,3.4,5.1
	c0,1.5-0.5,2.7-1.4,3.6c-1,0.9-2.3,1.3-3.8,1.3c-1.8,0-3.4-0.6-4.9-1.7v-3.4c1.4,1.8,3,2.7,4.9,2.7c0.8,0,1.5-0.3,2-0.7
	c0.5-0.4,0.8-1,0.8-1.7c0-1.1-0.8-2.2-2.4-3.2l-2-1.2c-1.3-0.8-2.1-1.5-2.7-2.3c-0.5-0.8-0.8-1.6-0.8-2.5c0-1.4,0.5-2.6,1.5-3.5
	s2.3-1.3,3.9-1.3c1.5,0,2.9,0.4,4.2,1.3v2.9c-1.3-1.3-2.7-1.9-4.3-1.9c-0.8,0-1.5,0.2-2.1,0.6s-0.8,0.9-0.8,1.5s0.2,1.1,0.6,1.5
	C152.8,7,153.4,7.5,154.3,8z M136.9,12.2c0-1.3-0.2-2.1-0.6-2.6c-0.3-0.5-1-0.8-1.8-0.8c-1.1,0-2.1,0.6-2.9,1.7v8.6h-2.4V7h2.4v1.5
	c1.1-1.2,2.3-1.8,3.6-1.8c0.8,0,1.4,0.2,2.1,0.6c0.7,0.4,1.1,0.9,1.4,1.6c0.3,0.7,0.5,1.8,0.5,3.2v6.9h-2.3L136.9,12.2L136.9,12.2z
	 M124.1,9c-0.8,0-1.4,0.3-2,1.1c-0.6,0.8-0.8,1.6-0.8,2.6v6.3h-2.3V7h2.3v2.8l0.2-0.3c1.2-1.8,2.3-2.8,3.4-2.8
	c0.9,0,1.8,0.4,2.8,1.3l-1.3,2.1C125.5,9.4,124.8,9,124.1,9z M108.8,15.9c0.7,0.7,1.6,1,2.8,1c1.6,0,3-0.5,4.4-1.5v2.3
	c-0.8,0.5-1.4,0.8-2.2,1c-0.8,0.2-1.6,0.3-2.5,0.3c-1.3,0-2.3-0.3-3.2-0.8c-0.8-0.6-1.5-1.3-1.9-2.2c-0.5-0.9-0.8-2-0.8-3.3
	c0-1.8,0.5-3.4,1.5-4.4c1-1.2,2.3-1.8,4-1.8c1.6,0,2.9,0.6,3.8,1.7c0.9,1.1,1.4,2.6,1.4,4.5v0.3h-8.5
	C107.7,14.3,108.2,15.3,108.8,15.9z M113.8,11.7c-0.1-0.9-0.3-1.7-0.8-2.2s-1.2-0.8-2-0.8c-0.8,0-1.5,0.3-2.1,0.8
	c-0.5,0.5-0.9,1.3-1.1,2.2H113.8z M93.4,17.4c-1.1-1.1-1.6-2.6-1.6-4.5c0-1.8,0.6-3.3,1.7-4.4c1.1-1.2,2.5-1.7,4.3-1.7
	c0.8,0,1.7,0.2,2.6,0.5V0.8h2.3V19h-5C95.8,19,94.4,18.4,93.4,17.4z M100.3,16.9V9.3C99.5,9,98.8,8.7,98,8.7c-1.2,0-2.1,0.4-2.9,1.2
	c-0.7,0.8-1.1,1.8-1.1,3.2c0,1.3,0.3,2.2,0.9,2.9c0.3,0.4,0.8,0.7,1.2,0.8c0.4,0.2,1.2,0.2,2.2,0.2H100.3z M83.3,19.2
	c-1.8,0-3.3-0.6-4.5-1.8c-1.2-1.2-1.8-2.6-1.8-4.4s0.6-3.3,1.8-4.4s2.8-1.8,4.6-1.8c1.8,0,3.4,0.6,4.5,1.8c1.2,1.2,1.8,2.7,1.8,4.4
	s-0.6,3.2-1.8,4.4C86.6,18.6,85.1,19.2,83.3,19.2z M86.1,10.2c-0.8-0.8-1.8-1.1-2.9-1.1s-2.1,0.3-2.8,1.1c-0.7,0.8-1.1,1.7-1.1,2.9
	s0.3,2.1,1.1,2.9c0.8,0.8,1.7,1.1,2.9,1.1s2.1-0.3,2.9-1.1c0.8-0.8,1.1-1.7,1.1-2.9C87.3,11.9,86.9,11,86.1,10.2z M71.3,4.8
	l-5.6,3.7h-0.5l-5.7-3.7V19H57V0.8h2.5l6,4.2l6-4.2H74V19h-2.6L71.3,4.8L71.3,4.8z M254.9,19h-2.3V7h2.3V19z"/>
<text transform="matrix(1 0 0 1 57.0347 40.2425)" class="st2 st3">kitchen and bathroom whosaler</text>
</svg>
