<?xml version="1.0" encoding="utf-8"?>
<!-- Generator: Adobe Illustrator 19.2.0, SVG Export Plug-In . SVG Version: 6.00 Build 0)  -->
<svg version="1.1" id="Слой_1" xmlns="http://www.w3.org/2000/svg" xmlns:xlink="http://www.w3.org/1999/xlink" x="0px" y="0px"
	 width="300px" height="43.3px" viewBox="0 0 300 43.3" style="enable-background:new 0 0 300 43.3;" xml:space="preserve">
<style type="text/css">
	.st0{fill:#FF673E;}
	.st1{opacity:0.8;fill:#FFFFFF;enable-background:new    ;}
	.st2{fill:#FFFFFF;}
	.st3{font-family:'PTSerif-Regular';}
	.st4{font-size:11.7024px;}
</style>
<path class="st0" d="M39.6,31.1L20,40l0,0c-0.1,0.1-0.3,0.1-0.3,0.1l0,0l0,0l0,0c-0.1,0-0.2,0-0.3-0.1h-0.1c-0.1,0-0.2-0.1-0.2-0.2
	c0,0-0.1,0-0.1-0.1c-0.1-0.1-0.1-0.2-0.2-0.3l0,0c0-0.1,0-0.1,0-0.2c0-0.1,0-0.1,0-0.2l0,0V25.9c0,0,0,0,0-0.1c0-0.1,0-0.1,0-0.2
	s0-0.1,0.1-0.2c0-0.1,0.1-0.1,0.1-0.2s0.1-0.1,0.1-0.2c0,0,0.1-0.1,0.2-0.1c0,0,0,0,0.1,0c0,0,0,0,0.1,0L39,19.8h0.1h0.1
	c0,0,0,0,0.1,0s0.1,0,0.2,0s0.1,0,0.2,0.1c0.1,0,0.1,0.1,0.2,0.1c0.1,0,0.1,0.1,0.2,0.1c0,0,0.1,0.1,0.1,0.2c0,0.1,0.1,0.1,0.1,0.2
	c0,0,0,0,0,0.1v0.1v0.1v9.7C40.1,30.6,40,30.9,39.6,31.1z M38.4,21.7l-17.9,4.8v11.3l17.9-8.1V21.7z M24,29.7l11.5-4
	c0.5-0.2,1,0.1,1.2,0.6s-0.1,1-0.6,1.2l-11.5,4c-0.1,0-0.2,0.1-0.3,0.1c-0.3,0-0.8-0.3-0.8-0.6C23.2,30.3,23.5,29.8,24,29.7z
	 M35.2,19.4c0,0.1,0,0.1-0.1,0.2c0,0.1-0.1,0.1-0.1,0.2s-0.1,0.1-0.1,0.2c0,0-0.1,0.1-0.2,0.1s-0.1,0.1-0.2,0.1h-0.1l-19.2,4.5v10.2
	c0,0.3-0.2,0.6-0.4,0.8c-0.2,0.1-0.3,0.1-0.4,0.1s-0.3,0-0.4-0.1L0.4,27.4C0.2,27.3,0,27,0,26.7V0.9C0,0.4,0.4,0,0.9,0h33.5
	c0.5,0,0.9,0.4,0.9,0.9v18.2v0.1C35.3,19.3,35.3,19.3,35.2,19.4z M13.6,1.8H1.8v24.4l11.8,7L13.6,1.8L13.6,1.8z M33.5,1.8H15.4v9.6
	l18.1-2.1V1.8z M33.5,11.1l-18.1,2.1v9.5l18.1-4.3V11.1z M19.1,16.4l11.1-2c0.5-0.1,0.9,0.3,1,0.8c0.1,0.5-0.3,0.9-0.8,1l-11.1,2
	c-0.1,0-0.1,0-0.2,0c-0.4,0-0.8-0.3-0.8-0.8C18.2,17,18.6,16.5,19.1,16.4z M19.1,5.8l11.1-0.5c0.5,0,0.9,0.3,0.9,0.8S30.8,7,30.3,7
	L19.2,7.5c0,0,0,0-0.1,0c-0.5,0-0.8-0.3-0.9-0.8C18.3,6.2,18.6,5.8,19.1,5.8z"/>
<path class="st1" d="M295.9,8.8c-0.4,0-0.8,0.1-1.1,0.3c-0.3,0.2-0.4,0.4-0.4,0.8c0,0.3,0.2,0.6,0.4,0.8c0.3,0.3,0.7,0.6,1.3,0.9
	l0.8,0.5c2,1.2,3,2.4,3,3.8c0,1-0.4,1.8-1.2,2.4s-1.8,0.9-2.9,0.9c-0.8,0-1.3-0.1-1.9-0.3c-0.6-0.2-1.3-0.4-2.1-0.8v-2.6
	c0.7,0.5,1.3,0.8,2,1.2c0.7,0.3,1.3,0.4,1.8,0.4c0.5,0,0.9-0.1,1.3-0.3c0.3-0.3,0.5-0.5,0.5-0.8c0-0.3-0.1-0.7-0.3-0.8
	c-0.3-0.3-0.8-0.6-1.5-1c-1.5-0.8-2.5-1.6-3-2.2c-0.5-0.6-0.7-1.3-0.7-2c0-0.9,0.3-1.7,1.1-2.3s1.7-0.8,2.8-0.8c1.2,0,2.3,0.3,3.6,1
	V10C297.9,9.2,296.7,8.8,295.9,8.8z M287.7,19.1c-1.1,0-2-0.3-2.7-0.9c-0.3-0.2-0.4-0.4-0.6-0.7c-0.2-0.3-0.3-0.6-0.3-0.9
	c-0.1-0.4-0.2-1.1-0.2-2.2V9.1h-2.1V8.9l4.4-4.3V7h3.8v2.2h-3.8V15c0,1.3,0.6,2.1,1.7,2.1c0.8,0,1.8-0.3,2.7-0.8v2.1
	C289.8,18.9,288.8,19.1,287.7,19.1z M273.8,15.9c0.7,0.7,1.6,1,2.8,1c1.6,0,3-0.5,4.3-1.5v2.3c-0.8,0.5-1.4,0.8-2.2,1
	c-0.8,0.2-1.6,0.3-2.5,0.3c-1.3,0-2.3-0.3-3.2-0.8c-0.8-0.6-1.5-1.3-1.9-2.2c-0.5-0.9-0.8-2-0.8-3.3c0-1.8,0.5-3.3,1.5-4.4
	c1-1.2,2.3-1.8,4-1.8c1.6,0,2.8,0.6,3.8,1.7c0.9,1.1,1.4,2.6,1.4,4.5v0.3h-8.4C272.7,14.3,273,15.2,273.8,15.9z M278.7,11.7
	c-0.1-0.9-0.3-1.7-0.8-2.2c-0.5-0.5-1.2-0.8-2-0.8s-1.5,0.3-2.1,0.8c-0.5,0.5-0.9,1.3-1.1,2.2H278.7z M265.1,12.1
	c0-1.3-0.2-2.1-0.6-2.6c-0.3-0.5-1-0.8-1.8-0.8c-1.1,0-2.1,0.6-2.8,1.7v8.6h-2.4V6.9h2.4v1.5c1.1-1.2,2.3-1.8,3.6-1.8
	c0.8,0,1.4,0.2,2.1,0.6c0.7,0.4,1.1,0.9,1.4,1.6c0.3,0.7,0.5,1.8,0.5,3.2v6.9h-2.3V12.1z M252.9,4.7c-0.3,0-0.7-0.2-0.9-0.4
	c-0.3-0.3-0.4-0.6-0.4-1c0-0.3,0.2-0.7,0.4-1c0.3-0.3,0.6-0.4,0.9-0.4c0.4,0,0.8,0.2,1,0.4c0.3,0.3,0.4,0.6,0.4,1s-0.2,0.8-0.4,1
	C253.6,4.6,253.3,4.7,252.9,4.7z M242.7,19.1c-0.8,0-1.6-0.1-2.4-0.3c-0.8-0.2-1.5-0.3-2-0.7V0.7h2.3v7.1c1-0.8,2.1-1.1,3.3-1.1
	c1.5,0,2.8,0.6,3.7,1.8s1.4,2.6,1.4,4.4c0,1.9-0.6,3.5-1.8,4.6C246.2,18.6,244.7,19.1,242.7,19.1z M245.8,10
	c-0.6-0.8-1.4-1.1-2.4-1.1c-0.9,0-1.8,0.4-2.7,1.2v6.5c0.8,0.3,1.7,0.3,2.5,0.3c1.1,0,1.9-0.3,2.6-1.1c0.7-0.8,1-1.7,1-2.9
	C246.7,11.7,246.3,10.8,245.8,10z M234,19.1c-1,0-1.6-0.4-1.8-1.2c-1,0.8-2.1,1.2-3.2,1.2c-0.8,0-1.5-0.3-2.1-0.8s-0.8-1.3-0.8-2.1
	c0-0.8,0.3-1.4,0.8-2c0.5-0.6,1.3-1.1,2.3-1.4l3-1v-0.7c0-1.4-0.8-2.2-2.2-2.2c-1.3,0-2.5,0.7-3.8,2V8.4c0.9-1.1,2.3-1.7,3.9-1.7
	c1.3,0,2.3,0.3,3.1,1c0.3,0.3,0.5,0.5,0.7,0.8c0.2,0.3,0.3,0.8,0.4,1.1c0.1,0.3,0.1,1.1,0.1,2.1v5.1c0,0.4,0.2,0.6,0.4,0.6
	c0.3,0,0.8-0.3,1.3-0.7v1.4c-0.5,0.3-1,0.6-1.3,0.8C234.6,19.1,234.3,19.1,234,19.1z M232.2,13l-1.6,0.6c-0.8,0.3-1.3,0.7-1.7,1
	c-0.3,0.3-0.5,0.8-0.5,1.3s0.2,0.9,0.5,1.3c0.3,0.3,0.8,0.5,1.3,0.5c0.8,0,1.4-0.3,2.1-0.9L232.2,13L232.2,13z M217.6,19.1
	c-2,0-3.8-0.4-5.2-1.3c-1.4-0.8-2.5-1.9-3.3-3.3c-0.8-1.4-1.3-3-1.3-4.7c0-2.7,0.9-4.8,2.8-6.7c1.9-1.8,4.2-2.7,6.9-2.7
	c1.9,0,4,0.5,6.4,1.5v2.8c-2.1-1.3-4.2-1.8-6.2-1.8c-2.1,0-3.8,0.7-5.2,2s-2.1,3-2.1,4.9c0,2,0.7,3.7,2,4.9s3.1,1.9,5.2,1.9
	c2.2,0,4.3-0.7,6.4-2v2.8C222.3,18.6,220.1,19.1,217.6,19.1z M191,15.9c0.7,0.7,1.6,1,2.8,1c1.6,0,3-0.5,4.3-1.5v2.3
	c-0.8,0.5-1.4,0.8-2.2,1c-0.8,0.2-1.6,0.3-2.5,0.3c-1.3,0-2.3-0.3-3.2-0.8c-0.8-0.6-1.5-1.3-1.9-2.2c-0.5-0.9-0.8-2-0.8-3.3
	c0-1.8,0.5-3.3,1.5-4.4c1-1.2,2.3-1.8,4-1.8c1.6,0,2.8,0.6,3.8,1.7c0.9,1.1,1.4,2.6,1.4,4.5v0.3h-8.4
	C189.9,14.3,190.3,15.2,191,15.9z M195.9,11.7c-0.1-0.9-0.3-1.7-0.8-2.2c-0.5-0.5-1.2-0.8-2-0.8S191.6,9,191,9.5
	c-0.5,0.5-0.9,1.3-1.1,2.2H195.9z M182.3,0.8h2.3V19h-2.3V0.8z M169.4,25.1l4.1-8.7l-4.6-9.4h2.7l3.3,6.8l3.1-6.8h2.7l-8.5,18.1
	H169.4z M165.9,19.1c-1.1,0-2-0.3-2.7-0.9c-0.3-0.2-0.4-0.4-0.6-0.7c-0.2-0.3-0.3-0.6-0.3-0.9c-0.1-0.4-0.2-1.1-0.2-2.2V9.1h-2.1
	V8.9l4.4-4.3V7h3.8v2.2h-3.8V15c0,1.3,0.6,2.1,1.7,2.1c0.8,0,1.8-0.3,2.7-0.8v2.1C168,18.9,167,19.1,165.9,19.1z M153.9,7.9l2,1.2
	c2.2,1.3,3.3,3,3.3,5.1c0,1.5-0.5,2.7-1.4,3.6c-1,0.9-2.3,1.3-3.8,1.3c-1.8,0-3.4-0.6-4.9-1.7v-3.3c1.4,1.8,3,2.7,4.8,2.7
	c0.8,0,1.5-0.3,2-0.7c0.5-0.4,0.8-1,0.8-1.7c0-1.1-0.8-2.2-2.4-3.2l-2-1.2c-1.3-0.8-2.1-1.5-2.7-2.3c-0.5-0.8-0.8-1.6-0.8-2.5
	c0-1.4,0.5-2.6,1.5-3.5c1-0.9,2.3-1.3,3.8-1.3c1.5,0,2.9,0.4,4.2,1.3v2.9c-1.3-1.3-2.7-1.9-4.3-1.9c-0.8,0-1.5,0.2-2.1,0.6
	c-0.6,0.4-0.8,0.9-0.8,1.5s0.2,1.1,0.6,1.5C152.4,6.9,153,7.4,153.9,7.9z M136.5,12.1c0-1.3-0.2-2.1-0.6-2.6c-0.3-0.5-1-0.8-1.8-0.8
	c-1.1,0-2.1,0.6-2.8,1.7v8.6h-2.4V6.9h2.4v1.5c1.1-1.2,2.3-1.8,3.6-1.8c0.8,0,1.4,0.2,2.1,0.6c0.7,0.4,1.1,0.9,1.4,1.6
	s0.5,1.8,0.5,3.2v6.9h-2.3L136.5,12.1L136.5,12.1z M123.7,8.9c-0.8,0-1.4,0.3-2,1.1s-0.8,1.6-0.8,2.6v6.3h-2.3v-12h2.3v2.8l0.2-0.3
	c1.2-1.8,2.3-2.8,3.4-2.8c0.9,0,1.8,0.4,2.8,1.3l-1.3,2.1C125.1,9.4,124.4,8.9,123.7,8.9z M108.5,15.9c0.7,0.7,1.6,1,2.8,1
	c1.6,0,3-0.5,4.3-1.5v2.3c-0.8,0.5-1.4,0.8-2.2,1c-0.8,0.2-1.6,0.3-2.5,0.3c-1.3,0-2.3-0.3-3.2-0.8c-0.8-0.6-1.5-1.3-1.9-2.2
	c-0.5-0.9-0.8-2-0.8-3.3c0-1.8,0.5-3.3,1.5-4.4c1-1.2,2.3-1.8,4-1.8c1.6,0,2.8,0.6,3.8,1.7c0.9,1.1,1.4,2.6,1.4,4.5v0.3h-8.4
	C107.4,14.3,107.8,15.2,108.5,15.9z M113.4,11.7c-0.1-0.9-0.3-1.7-0.8-2.2c-0.5-0.5-1.2-0.8-2-0.8c-0.8,0-1.5,0.3-2.1,0.8
	c-0.5,0.5-0.9,1.3-1.1,2.2H113.4z M93.1,17.3c-1.1-1.1-1.6-2.6-1.6-4.5c0-1.8,0.6-3.3,1.7-4.3c1.1-1.2,2.5-1.7,4.3-1.7
	c0.8,0,1.7,0.2,2.6,0.5V0.8h2.3V19h-5C95.5,19,94.1,18.4,93.1,17.3z M100,16.9V9.3c-0.8-0.3-1.5-0.6-2.3-0.6c-1.2,0-2.1,0.4-2.8,1.2
	c-0.7,0.8-1.1,1.8-1.1,3.2c0,1.3,0.3,2.2,0.9,2.8c0.3,0.4,0.8,0.7,1.2,0.8c0.4,0.2,1.2,0.2,2.2,0.2H100z M83,19.1
	c-1.8,0-3.3-0.6-4.5-1.8c-1.2-1.2-1.8-2.6-1.8-4.3s0.6-3.3,1.8-4.4c1.3-1.2,2.8-1.8,4.6-1.8c1.8,0,3.3,0.6,4.5,1.8s1.8,2.7,1.8,4.4
	s-0.6,3.2-1.8,4.3S84.8,19.1,83,19.1z M85.8,10.2c-0.8-0.8-1.8-1.1-2.9-1.1c-1.2,0-2.1,0.3-2.8,1.1c-0.7,0.8-1.1,1.7-1.1,2.8
	s0.3,2.1,1.1,2.8c0.8,0.8,1.7,1.1,2.8,1.1c1.2,0,2.1-0.3,2.8-1.1c0.8-0.8,1.1-1.7,1.1-2.8C87,11.9,86.6,11,85.8,10.2z M71.1,4.8
	l-5.6,3.7H65l-5.7-3.7V19h-2.5V0.8h2.5l6,4.2l6-4.2h2.4V19h-2.6L71.1,4.8L71.1,4.8z M254.1,19h-2.3v-12h2.3V19z"/>
<text transform="matrix(1 0 0 1 56.8644 40.1229)" class="st2 st3 st4">kitchen and bathroom whosaler</text>
</svg>
