<svg xmlns="http://www.w3.org/2000/svg" xmlns:xlink="http://www.w3.org/1999/xlink" preserveAspectRatio="xMidYMid" width="153" height="153" viewBox="0 0 153 153">
  <defs>
    <style>
      .cls-1 {
        fill: #f2f2f2;
        fill-rule: evenodd;
      }
    </style>
  </defs>
  <path d="M90.868,118.580 L110.645,95.000 L143.000,95.000 C148.523,95.000 153.000,99.477 153.000,105.000 L153.000,125.551 L90.868,118.580 ZM114.882,40.859 C114.845,41.356 114.802,41.851 114.746,42.342 C114.717,42.597 114.683,42.851 114.649,43.104 C114.586,43.575 114.514,44.043 114.433,44.509 C114.392,44.750 114.351,44.991 114.304,45.231 C114.205,45.744 114.093,46.252 113.974,46.758 C113.932,46.935 113.896,47.114 113.851,47.290 C113.504,48.672 113.080,50.023 112.586,51.340 C112.530,51.488 112.469,51.634 112.412,51.782 C112.212,52.294 112.004,52.801 111.783,53.302 C111.710,53.467 111.635,53.632 111.560,53.796 C111.331,54.294 111.093,54.786 110.844,55.273 C110.775,55.408 110.707,55.543 110.637,55.678 C110.401,56.125 110.150,56.563 109.897,57.000 L110.000,57.000 L77.000,115.000 L44.000,57.000 L44.096,57.000 C44.096,57.000 44.096,57.000 44.096,57.000 C42.899,54.932 41.892,52.742 41.098,50.450 C41.071,50.375 41.046,50.299 41.021,50.223 C40.792,49.548 40.581,48.866 40.389,48.176 C40.364,48.086 40.337,47.997 40.313,47.907 C39.911,46.417 39.599,44.891 39.380,43.335 C39.352,43.136 39.329,42.935 39.304,42.735 C39.232,42.157 39.174,41.575 39.128,40.989 C39.111,40.770 39.092,40.553 39.078,40.333 C39.031,39.561 39.000,38.784 39.000,38.000 C39.000,17.013 56.013,-0.000 77.000,-0.000 C97.987,-0.000 115.000,17.013 115.000,38.000 C115.000,38.732 114.974,39.457 114.934,40.179 C114.921,40.407 114.899,40.632 114.882,40.859 ZM77.000,19.000 C66.507,19.000 58.000,27.507 58.000,38.000 C58.000,48.493 66.507,57.000 77.000,57.000 C87.493,57.000 96.000,48.493 96.000,38.000 C96.000,27.507 87.493,19.000 77.000,19.000 ZM69.663,109.135 L61.992,115.290 L-0.000,108.228 L-0.000,105.000 C-0.000,99.477 4.477,95.000 10.000,95.000 L61.621,95.000 L69.663,109.135 ZM15.000,153.000 L10.000,153.000 C4.477,153.000 -0.000,148.523 -0.000,143.000 L-0.000,122.927 L43.966,129.755 L15.000,153.000 ZM152.378,146.445 C150.973,150.268 147.310,153.000 143.000,153.000 L62.000,153.000 L77.170,134.912 L152.378,146.445 Z" class="cls-1"/>
</svg>
