<svg xmlns="http://www.w3.org/2000/svg" xmlns:xlink="http://www.w3.org/1999/xlink" preserveAspectRatio="xMidYMid" width="153" height="153" viewBox="0 0 153 153">
  <defs>
    <style>
      .cls-1 {
        fill: #f2f2f2;
        fill-rule: evenodd;
      }
    </style>
  </defs>
  <path d="M143.000,153.000 L10.000,153.000 C4.477,153.000 0.000,148.523 0.000,143.000 L0.000,30.000 C0.000,24.477 4.477,20.000 10.000,20.000 L63.236,20.000 C58.988,26.464 56.189,33.945 55.308,42.000 L4.000,42.000 L4.000,141.526 C4.000,146.758 6.243,149.000 11.477,149.000 L141.523,149.000 C146.757,149.000 149.000,146.758 149.000,141.526 L149.000,74.636 C150.532,72.260 151.881,69.758 153.000,67.133 L153.000,143.000 C153.000,148.523 148.523,153.000 143.000,153.000 ZM58.150,65.000 C58.659,66.363 59.230,67.695 59.851,69.000 L50.000,69.000 L50.000,84.000 L65.000,84.000 L65.000,77.529 C66.235,79.179 67.575,80.746 69.000,82.233 L69.000,84.000 L70.778,84.000 C72.282,85.423 73.864,86.766 75.535,88.000 L69.000,88.000 L69.000,103.000 L84.000,103.000 L84.000,93.068 C85.303,93.686 86.639,94.244 88.000,94.753 L88.000,103.000 L103.000,103.000 L103.000,97.905 C103.993,97.962 104.992,97.999 106.000,97.999 C106.335,97.999 106.666,97.980 107.000,97.974 L107.000,103.000 L122.000,103.000 L122.000,95.449 C123.358,95.005 124.695,94.515 126.000,93.963 L126.000,103.000 L141.000,103.000 L141.000,88.000 L136.465,88.000 C139.612,85.675 142.472,82.994 145.000,80.025 L145.000,84.000 L145.000,88.000 L145.000,103.000 L145.000,107.000 L145.000,122.000 L145.000,126.000 L141.000,126.000 L126.000,126.000 L122.000,126.000 L107.000,126.000 L103.000,126.000 L88.000,126.000 L88.000,141.000 L88.000,145.000 L8.000,145.000 L8.000,144.000 L8.000,141.000 L8.000,126.000 L8.000,122.000 L8.000,107.000 L8.000,103.000 L8.000,88.000 L8.000,84.000 L8.000,69.000 L8.000,68.000 L8.000,65.000 L46.000,65.000 L46.000,50.000 L46.000,47.000 L46.000,46.000 L55.040,46.000 C55.025,46.500 55.001,46.997 55.001,47.500 C55.001,48.338 55.024,49.172 55.065,50.000 L50.000,50.000 L50.000,65.000 L58.150,65.000 ZM126.000,122.000 L141.000,122.000 L141.000,107.000 L126.000,107.000 L126.000,122.000 ZM107.000,122.000 L122.000,122.000 L122.000,107.000 L107.000,107.000 L107.000,122.000 ZM88.000,122.000 L103.000,122.000 L103.000,107.000 L88.000,107.000 L88.000,122.000 ZM69.000,141.000 L84.000,141.000 L84.000,126.000 L69.000,126.000 L69.000,141.000 ZM69.000,122.000 L84.000,122.000 L84.000,107.000 L69.000,107.000 L69.000,122.000 ZM50.000,141.000 L65.000,141.000 L65.000,126.000 L50.000,126.000 L50.000,141.000 ZM50.000,122.000 L65.000,122.000 L65.000,107.000 L50.000,107.000 L50.000,122.000 ZM50.000,103.000 L65.000,103.000 L65.000,88.000 L50.000,88.000 L50.000,103.000 ZM27.000,69.000 L12.000,69.000 L12.000,84.000 L27.000,84.000 L27.000,69.000 ZM27.000,88.000 L12.000,88.000 L12.000,103.000 L27.000,103.000 L27.000,88.000 ZM27.000,107.000 L12.000,107.000 L12.000,122.000 L27.000,122.000 L27.000,107.000 ZM27.000,126.000 L12.000,126.000 L12.000,141.000 L27.000,141.000 L27.000,126.000 ZM46.000,69.000 L31.000,69.000 L31.000,84.000 L46.000,84.000 L46.000,69.000 ZM46.000,88.000 L31.000,88.000 L31.000,103.000 L46.000,103.000 L46.000,88.000 ZM46.000,107.000 L31.000,107.000 L31.000,122.000 L46.000,122.000 L46.000,107.000 ZM46.000,126.000 L31.000,126.000 L31.000,141.000 L46.000,141.000 L46.000,126.000 ZM106.000,94.000 C80.043,94.000 59.000,72.957 59.000,47.000 C59.000,21.043 80.043,-0.000 106.000,-0.000 C131.957,-0.000 153.000,21.043 153.000,47.000 C153.000,72.957 131.957,94.000 106.000,94.000 ZM106.000,4.000 C82.252,4.000 63.000,23.252 63.000,47.000 C63.000,70.748 82.252,90.000 106.000,90.000 C129.748,90.000 149.000,70.748 149.000,47.000 C149.000,23.252 129.748,4.000 106.000,4.000 ZM145.000,50.000 L141.000,50.000 L141.000,46.000 L145.000,46.000 L145.000,50.000 ZM106.105,51.489 L106.000,51.594 L77.744,23.338 L80.573,20.509 L106.117,46.054 L121.778,30.393 L124.607,33.222 L106.222,51.607 L106.105,51.489 ZM103.000,8.000 L107.000,8.000 L107.000,12.000 L103.000,12.000 L103.000,8.000 ZM107.000,86.000 L103.000,86.000 L103.000,82.000 L107.000,82.000 L107.000,86.000 ZM67.000,46.000 L71.000,46.000 L71.000,50.000 L67.000,50.000 L67.000,46.000 Z" class="cls-1"/>
</svg>
