<svg xmlns="http://www.w3.org/2000/svg" xmlns:xlink="http://www.w3.org/1999/xlink" preserveAspectRatio="xMidYMid" width="153" height="153" viewBox="0 0 153 153">
  <defs>
    <style>
      .cls-1 {
        fill: #f2f2f2;
        fill-rule: evenodd;
      }
    </style>
  </defs>
  <path d="M143.000,153.000 L10.000,153.000 C4.477,153.000 0.000,148.523 0.000,143.000 L0.000,134.000 L30.974,134.000 C37.064,134.000 42.000,129.146 42.000,123.158 L42.000,62.000 L59.000,62.000 L59.000,4.000 L59.000,-0.000 L63.000,-0.000 L113.000,-0.000 L117.000,-0.000 L136.000,19.000 L136.000,23.000 L136.000,62.000 L143.000,62.000 C148.523,62.000 153.000,66.477 153.000,72.000 L153.000,143.000 C153.000,148.523 148.523,153.000 143.000,153.000 ZM136.000,134.000 L136.000,128.000 L116.000,128.000 L116.000,134.000 L136.000,134.000 ZM107.000,134.000 L107.000,128.000 L97.000,128.000 L97.000,134.000 L107.000,134.000 ZM59.000,114.000 L69.000,114.000 L69.000,108.000 L59.000,108.000 L59.000,114.000 ZM59.000,118.000 L59.000,124.000 L69.000,124.000 L69.000,118.000 L59.000,118.000 ZM78.000,114.000 L88.000,114.000 L88.000,108.000 L78.000,108.000 L78.000,114.000 ZM78.000,118.000 L78.000,124.000 L88.000,124.000 L88.000,118.000 L78.000,118.000 ZM97.000,114.000 L107.000,114.000 L107.000,108.000 L97.000,108.000 L97.000,114.000 ZM97.000,118.000 L97.000,124.000 L107.000,124.000 L107.000,118.000 L97.000,118.000 ZM88.000,134.000 L88.000,128.000 L78.000,128.000 L78.000,134.000 L88.000,134.000 ZM69.000,134.000 L69.000,128.000 L59.000,128.000 L59.000,134.000 L69.000,134.000 ZM117.000,6.000 L117.000,19.000 L130.000,19.000 L117.000,6.000 ZM132.000,23.000 L117.000,23.000 L113.000,23.000 L113.000,19.000 L113.000,4.000 L63.000,4.000 L63.000,62.000 L132.000,62.000 L132.000,23.000 ZM136.000,79.000 L59.000,79.000 L59.000,95.000 L136.000,95.000 L136.000,79.000 ZM136.000,108.000 L116.000,108.000 L116.000,114.000 L136.000,114.000 L136.000,108.000 ZM116.000,118.000 L116.000,124.000 L136.000,124.000 L136.000,118.000 L116.000,118.000 ZM98.000,23.000 L78.000,23.000 L78.000,19.000 L98.000,19.000 L98.000,23.000 ZM117.000,31.000 L78.000,31.000 L78.000,27.000 L117.000,27.000 L117.000,31.000 ZM117.000,39.000 L78.000,39.000 L78.000,35.000 L117.000,35.000 L117.000,39.000 ZM117.000,47.000 L78.000,47.000 L78.000,43.000 L117.000,43.000 L117.000,47.000 ZM29.000,131.000 L0.000,131.000 L0.000,121.000 L0.000,49.000 C0.000,43.477 4.477,39.000 10.000,39.000 L29.000,39.000 L29.000,24.000 C29.000,21.239 31.239,19.000 34.000,19.000 C36.761,19.000 39.000,21.239 39.000,24.000 L39.000,39.000 L39.000,44.000 L39.000,49.000 L39.000,121.000 C39.000,126.523 34.523,131.000 29.000,131.000 Z" class="cls-1"/>
</svg>
