<svg xmlns="http://www.w3.org/2000/svg" xmlns:xlink="http://www.w3.org/1999/xlink" preserveAspectRatio="xMidYMid" width="18" height="16" viewBox="0 0 18 16">
  <defs>
    <style>
      .cls-1 {
        fill: #ff673e;
        fill-rule: evenodd;
      }
    </style>
  </defs>
  <path d="M5.479,1.865 C6.821,1.865 8.217,2.725 8.997,4.545 C9.750,2.776 11.165,1.920 12.530,1.920 C14.317,1.920 16.018,3.386 16.037,6.192 C16.055,8.903 13.541,9.850 11.917,11.000 C10.432,12.052 9.788,12.629 9.008,13.364 C8.167,12.554 7.687,12.080 6.083,11.030 C4.429,9.946 1.945,8.932 1.963,6.221 C1.983,3.398 3.684,1.865 5.479,1.865 M5.478,0.003 C2.781,0.003 0.037,2.134 0.008,6.209 C-0.014,9.543 2.548,11.088 4.243,12.110 C4.497,12.264 4.745,12.413 4.975,12.563 C6.392,13.492 6.783,13.869 7.563,14.620 L7.618,14.673 L8.991,15.997 L10.382,14.688 C11.106,14.006 11.686,13.484 13.084,12.494 C13.337,12.315 13.639,12.127 13.958,11.928 C15.573,10.923 18.014,9.404 17.992,6.180 C17.964,2.161 15.223,0.059 12.530,0.059 C11.228,0.059 10.008,0.523 9.012,1.348 C8.011,0.488 6.783,0.003 5.479,0.003 L5.479,0.003 C5.479,0.003 5.479,0.003 5.478,0.003 L5.478,0.003 Z" class="cls-1"/>
</svg>
