<svg xmlns="http://www.w3.org/2000/svg" xmlns:xlink="http://www.w3.org/1999/xlink" preserveAspectRatio="xMidYMid" width="20" height="20" viewBox="0 0 20 20">
  <defs>
    <style>
      .cls-1 {
        fill: #545b65;
        fill-rule: evenodd;
      }
    </style>
  </defs>
  <path d="M8.000,20.000 L8.000,16.000 L20.000,16.000 L20.000,20.000 L8.000,20.000 ZM8.000,8.000 L20.000,8.000 L20.000,12.000 L8.000,12.000 L8.000,8.000 ZM8.000,-0.000 L20.000,-0.000 L20.000,4.000 L8.000,4.000 L8.000,-0.000 ZM0.000,16.000 L4.000,16.000 L4.000,20.000 L0.000,20.000 L0.000,16.000 ZM0.000,8.000 L4.000,8.000 L4.000,12.000 L0.000,12.000 L0.000,8.000 ZM0.000,-0.000 L4.000,-0.000 L4.000,4.000 L0.000,4.000 L0.000,-0.000 Z" class="cls-1"/>
</svg>
