<?xml version="1.0" encoding="utf-8"?>
<!-- Generator: Adobe Illustrator 19.2.0, SVG Export Plug-In . SVG Version: 6.00 Build 0)  -->
<svg version="1.1" id="Слой_1" xmlns="http://www.w3.org/2000/svg" xmlns:xlink="http://www.w3.org/1999/xlink" x="0px" y="0px"
	 width="48px" height="48px" viewBox="0 0 48 48" style="enable-background:new 0 0 48 48;" xml:space="preserve">
<style type="text/css">
	.st0{fill:#ED6846;}
</style>
<path class="st0" d="M47.4,37.2L23.9,47.9l0,0C23.8,48,23.6,48,23.5,48l0,0l0,0l0,0c-0.1,0-0.2,0-0.4-0.1H23c-0.1,0-0.2-0.1-0.2-0.2
	c0,0-0.1,0-0.1-0.1c-0.1-0.1-0.1-0.2-0.2-0.3l0,0c0-0.1,0-0.1,0-0.2c0-0.1,0-0.1,0-0.2l0,0V31c0,0,0,0,0-0.1s0-0.1,0-0.2
	s0-0.1,0.1-0.2c0-0.1,0.1-0.1,0.1-0.2s0.1-0.1,0.1-0.2c0,0,0.1-0.1,0.2-0.1c0,0,0,0,0.1,0c0,0,0,0,0.1,0l23.5-6.3h0.1h0.1
	c0,0,0,0,0.1,0s0.1,0,0.2,0c0.1,0,0.1,0,0.2,0.1c0.1,0,0.1,0.1,0.2,0.1c0.1,0,0.1,0.1,0.2,0.1c0,0,0.1,0.1,0.1,0.2s0.1,0.1,0.1,0.2
	c0,0,0,0,0,0.1v0.1v0.1v11.6C48,36.6,47.8,37,47.4,37.2z M45.9,26l-21.4,5.8v13.5l21.4-9.7V26z M28.7,35.5l13.8-4.8
	c0.6-0.2,1.2,0.1,1.4,0.7c0.2,0.6-0.1,1.2-0.7,1.4l-13.8,4.8c-0.1,0-0.2,0.1-0.3,0.1c-0.4,0-0.9-0.3-1-0.7
	C27.8,36.3,28.1,35.7,28.7,35.5z M42.1,23.2c0,0.1,0,0.1-0.1,0.2c0,0.1-0.1,0.1-0.1,0.2s-0.1,0.1-0.1,0.2c0,0-0.1,0.1-0.2,0.1
	c-0.1,0-0.1,0.1-0.2,0.1h-0.1l-23,5.4v12.2c0,0.4-0.2,0.7-0.5,0.9c-0.2,0.1-0.3,0.1-0.5,0.1s-0.4,0-0.5-0.1L0.5,32.8
	C0.2,32.7,0,32.3,0,31.9V1.1C0,0.5,0.5,0,1.1,0h40.1c0.6,0,1.1,0.5,1.1,1.1v21.8V23C42.2,23.1,42.2,23.1,42.1,23.2z M16.3,2.1H2.1
	v29.2l14.1,8.4L16.3,2.1L16.3,2.1z M40.1,2.1H18.4v11.5l21.7-2.5V2.1z M40.1,13.3l-21.7,2.5v11.4l21.7-5.1V13.3z M22.8,19.6
	l13.3-2.4c0.6-0.1,1.1,0.3,1.2,0.9c0.1,0.6-0.3,1.1-0.9,1.2l-13.3,2.4c-0.1,0-0.1,0-0.2,0c-0.5,0-1-0.4-1-0.9
	C21.8,20.3,22.2,19.7,22.8,19.6z M22.9,6.9l13.3-0.6c0.6,0,1.1,0.4,1.1,1s-0.4,1.1-1,1.1L23,9c0,0,0,0-0.1,0c-0.6,0-1-0.4-1.1-1
	C21.9,7.4,22.3,6.9,22.9,6.9z"/>
</svg>
