<svg xmlns="http://www.w3.org/2000/svg" xmlns:xlink="http://www.w3.org/1999/xlink" preserveAspectRatio="xMidYMid" width="153" height="153" viewBox="0 0 153 153">
  <defs>
    <style>
      .cls-1 {
        fill: #f2f2f2;
        fill-rule: evenodd;
      }
    </style>
  </defs>
  <path d="M143.000,153.000 L10.000,153.000 C4.477,153.000 0.000,148.523 0.000,143.000 L0.000,92.203 C2.658,95.050 6.318,97.000 10.000,97.000 L64.000,97.000 L64.000,101.000 C64.000,106.523 68.477,111.000 74.000,111.000 L80.000,111.000 C85.523,111.000 90.000,106.523 90.000,101.000 L90.000,97.000 L143.000,97.000 C146.682,97.000 150.342,95.050 153.000,92.203 L153.000,143.000 C153.000,148.523 148.523,153.000 143.000,153.000 ZM80.000,83.000 C83.773,83.000 86.000,86.352 86.000,89.000 L86.000,95.000 L86.000,101.000 C86.000,103.648 83.773,107.000 80.000,107.000 L74.000,107.000 C71.227,107.000 68.000,104.398 68.000,101.000 L68.000,95.000 L68.000,89.000 C68.000,85.602 71.227,83.000 74.000,83.000 L80.000,83.000 ZM143.000,93.000 L90.000,93.000 L90.000,89.000 C90.000,83.477 85.523,79.000 80.000,79.000 L74.000,79.000 C68.477,79.000 64.000,83.477 64.000,89.000 L64.000,93.000 L10.000,93.000 C4.477,93.000 0.000,88.523 0.000,83.000 L0.000,47.000 C0.000,41.477 4.477,37.000 10.000,37.000 L143.000,37.000 C148.523,37.000 153.000,41.477 153.000,47.000 L153.000,83.000 C153.000,88.523 148.523,93.000 143.000,93.000 ZM95.000,29.000 L115.000,29.000 L115.000,33.000 L95.000,33.000 L95.000,29.000 ZM58.000,33.000 L38.000,33.000 L38.000,29.000 L58.000,29.000 L58.000,33.000 ZM101.000,16.000 C101.000,10.477 98.523,8.000 93.000,8.000 L83.000,8.000 L70.000,8.000 L60.000,8.000 C54.477,8.000 52.000,10.477 52.000,16.000 L52.000,25.000 L44.000,25.000 L44.000,10.000 C44.000,4.477 48.477,-0.000 54.000,-0.000 L99.000,-0.000 C104.523,-0.000 109.000,4.477 109.000,10.000 L109.000,25.000 L101.000,25.000 L101.000,16.000 Z" class="cls-1"/>
</svg>
